<svg width="1440" height="67" class="football-frame" viewBox="0 0 1440 67" fill="none" xmlns="http://www.w3.org/2000/svg">
<path d="M229 33.5C229 51.4493 205.047 66 175.5 66C145.953 66 122 51.4493 122 33.5C122 15.5507 145.953 1 175.5 1C205.047 1 229 15.5507 229 33.5Z" fill="#919191"/>
<path d="M174 1H1440M0 66H178M143 31H158.707M158.707 31H175.707M158.707 31L163.354 26.3535M158.707 31L154.354 35.3535M175.707 31H192.707M175.707 31L180.354 26.3535M175.707 31L171.354 35.3535M192.707 31H207M192.707 31L197.354 26.3535M192.707 31L188.354 35.3535M229 33.5C229 51.4493 205.047 66 175.5 66C145.953 66 122 51.4493 122 33.5C122 15.5507 145.953 1 175.5 1C205.047 1 229 15.5507 229 33.5Z" stroke="black"/>
</svg>
