<svg width="428" height="47" viewBox="0 0 428 47" fill="#992435" xmlns="http://www.w3.org/2000/svg">
<path d="M68.2931 10.2867C68.085 9.08818 67.5117 7.98318 66.6515 7.12299C65.7913 6.2628 64.6863 5.68944 63.4877 5.48139C57.7505 4.51301 46.9705 4.0745 39.0224 12.0225C31.0744 19.9705 31.5129 30.7506 32.4813 36.4878C32.6894 37.6864 33.2627 38.7914 34.1229 39.6516C34.9831 40.5118 36.0881 41.0851 37.2867 41.2932C39.2976 41.628 41.3324 41.7991 43.371 41.8048C49.0534 41.8048 56.1244 40.3979 61.752 34.752C69.7 26.804 69.2615 16.0239 68.2931 10.2867ZM37.78 38.4063C37.175 38.3099 36.616 38.0248 36.1829 37.5916C35.7497 37.1584 35.4646 36.5994 35.3682 35.9945C35.0436 34.1484 34.8785 32.2778 34.8748 30.4035L43.371 38.8996C41.4967 38.8953 39.6261 38.7302 37.78 38.4063ZM57.2755 18.5819L54.5165 21.3226L56.1609 22.967C56.4343 23.2411 56.5878 23.6123 56.5878 23.9994C56.5878 24.3864 56.4343 24.7577 56.1609 25.0317C55.8804 25.2999 55.5076 25.4503 55.1195 25.4519C54.7365 25.4513 54.3691 25.3004 54.0963 25.0317L52.4519 23.3873L50.3872 25.4519L52.0316 27.0964C52.305 27.3704 52.4585 27.7416 52.4585 28.1287C52.4585 28.5157 52.305 28.887 52.0316 29.161C51.8955 29.298 51.733 29.4058 51.554 29.4781C51.375 29.5503 51.1832 29.5854 50.9902 29.5813C50.7999 29.5851 50.6109 29.5497 50.4349 29.4774C50.2589 29.4051 50.0996 29.2974 49.967 29.161L48.3225 27.5166L45.5818 30.2756C45.3024 30.5457 44.929 30.6967 44.5404 30.6967C44.1517 30.6967 43.7783 30.5457 43.4989 30.2756C43.2244 29.9984 43.0704 29.6242 43.0704 29.2341C43.0704 28.8441 43.2244 28.4698 43.4989 28.1926L46.2579 25.4519L44.6135 23.8075C44.3615 23.5295 44.2262 23.1652 44.2354 22.7901C44.2446 22.415 44.3978 22.0578 44.6631 21.7925C44.9284 21.5272 45.2856 21.374 45.6607 21.3648C46.0358 21.3556 46.4001 21.4909 46.6781 21.7429L48.3225 23.3873L50.3872 21.3226L48.7428 19.6782C48.4908 19.4002 48.3555 19.0359 48.3647 18.6608C48.3739 18.2857 48.5271 17.9285 48.7924 17.6632C49.0577 17.3978 49.4149 17.2447 49.79 17.2355C50.1651 17.2262 50.5294 17.3616 50.8074 17.6135L52.4519 19.258L55.1926 16.499C55.4766 16.2659 55.8371 16.1468 56.2041 16.1648C56.571 16.1828 56.9182 16.3367 57.178 16.5965C57.4378 16.8563 57.5916 17.2034 57.6097 17.5704C57.6277 17.9374 57.5086 18.2979 57.2755 18.5819ZM57.4034 7.87493C59.2777 7.87931 61.1483 8.04436 62.9944 8.36826C63.5994 8.46465 64.1584 8.7498 64.5915 9.18296C65.0247 9.61613 65.3098 10.1751 65.4062 10.7801C65.7308 12.6261 65.8959 14.4967 65.8995 16.3711L57.4034 7.87493Z" fill="#D4AF37"/>
<line x1="64" y1="22.5" x2="428" y2="22.5" stroke="#992435"/>
<line y1="22.5" x2="35" y2="22.5" stroke="#992435"/>
</svg>
