<svg width="1440" height="80" viewBox="0 0 1440 80" fill="none" xmlns="http://www.w3.org/2000/svg">
<path d="M165.625 17.5938C165.269 15.5438 164.289 13.6539 162.817 12.1827C161.346 10.7115 159.456 9.73088 157.406 9.37504C147.594 7.71879 129.156 6.96879 115.563 20.5625C101.969 34.1563 102.719 52.5938 104.375 62.4063C104.731 64.4562 105.712 66.3462 107.183 67.8174C108.654 69.2886 110.544 70.2692 112.594 70.625C116.033 71.1976 119.513 71.4903 123 71.5C132.719 71.5 144.813 69.0938 154.438 59.4375C168.031 45.8438 167.281 27.4063 165.625 17.5938ZM113.438 65.6875C112.403 65.5227 111.447 65.035 110.706 64.2941C109.965 63.5533 109.477 62.5972 109.313 61.5625C108.757 58.4052 108.475 55.2058 108.469 52L123 66.5313C119.794 66.5238 116.595 66.2415 113.438 65.6875ZM146.781 31.7813L142.063 36.4688L144.875 39.2813C145.343 39.75 145.605 40.3849 145.605 41.0469C145.605 41.7089 145.343 42.3439 144.875 42.8125C144.395 43.2712 143.758 43.5285 143.094 43.5313C142.439 43.5302 141.81 43.2721 141.344 42.8125L138.531 40L135 43.5313L137.813 46.3438C138.28 46.8125 138.543 47.4474 138.543 48.1094C138.543 48.7714 138.28 49.4064 137.813 49.875C137.58 50.1092 137.302 50.2937 136.996 50.4173C136.69 50.5408 136.361 50.6009 136.031 50.5938C135.706 50.6003 135.383 50.5398 135.082 50.4162C134.781 50.2925 134.508 50.1084 134.281 49.875L131.469 47.0625L126.781 51.7813C126.303 52.2433 125.665 52.5016 125 52.5016C124.335 52.5016 123.697 52.2433 123.219 51.7813C122.749 51.3073 122.486 50.6672 122.486 50C122.486 49.3329 122.749 48.6928 123.219 48.2188L127.938 43.5313L125.125 40.7188C124.694 40.2432 124.463 39.6202 124.478 38.9786C124.494 38.3371 124.756 37.7262 125.21 37.2724C125.664 36.8186 126.275 36.5567 126.916 36.5409C127.558 36.5251 128.181 36.7566 128.656 37.1875L131.469 40L135 36.4688L132.188 33.6563C131.757 33.1807 131.525 32.5577 131.541 31.9161C131.557 31.2746 131.819 30.6637 132.272 30.2099C132.726 29.7561 133.337 29.4942 133.979 29.4784C134.62 29.4626 135.243 29.6941 135.719 30.125L138.531 32.9375L143.219 28.2188C143.705 27.8201 144.321 27.6164 144.949 27.6472C145.576 27.6781 146.17 27.9412 146.615 28.3856C147.059 28.8299 147.322 29.4236 147.353 30.0513C147.384 30.6789 147.18 31.2956 146.781 31.7813ZM147 13.4688C150.206 13.4763 153.405 13.7586 156.563 14.3125C157.597 14.4774 158.553 14.9651 159.294 15.706C160.035 16.4468 160.523 17.4029 160.688 18.4375C161.243 21.5949 161.525 24.7942 161.531 28L147 13.4688Z" fill="black"/>
<line x1="163" y1="39.5" x2="1440" y2="39.5" stroke="black"/>
<line y1="39.5" x2="107" y2="39.5" stroke="black"/>
</svg>
