<?xml version="1.0" standalone="no"?>
<!DOCTYPE svg PUBLIC "-//W3C//DTD SVG 20010904//EN"
 "http://www.w3.org/TR/2001/REC-SVG-20010904/DTD/svg10.dtd">
<svg version="1.0" xmlns="http://www.w3.org/2000/svg"
 width="700.000000pt" height="700.000000pt" viewBox="0 0 700.000000 700.000000"
 preserveAspectRatio="xMidYMid meet">
<metadata>
Created by potrace 1.14, written by Peter Selinger 2001-2017
</metadata>
<g transform="translate(0.000000,700.000000) scale(0.100000,-0.100000)"
fill="#000000" stroke="none">
<path d="M2070 5485 c0 -2 19 -36 43 -77 24 -40 58 -98 74 -128 17 -30 54 -93
82 -140 28 -47 60 -104 71 -127 11 -24 25 -43 30 -43 6 0 9 -3 8 -7 -3 -10
114 -217 124 -221 4 -2 8 -7 8 -12 0 -8 134 -248 168 -300 9 -14 15 -28 14
-32 -1 -5 3 -8 8 -8 6 0 10 -4 10 -10 0 -5 18 -39 39 -74 22 -35 37 -67 34
-70 -4 -3 -2 -6 3 -6 5 0 18 -17 29 -37 11 -21 34 -61 52 -90 18 -29 33 -56
33 -61 0 -5 7 -15 15 -22 8 -7 13 -16 10 -20 -3 -5 -2 -10 2 -12 10 -4 52 -76
60 -100 3 -10 9 -18 14 -18 5 0 9 -4 9 -9 0 -4 22 -46 49 -92 26 -46 74 -128
105 -181 31 -53 56 -102 56 -107 0 -6 3 -11 8 -11 4 0 20 -26 37 -58 16 -31
32 -59 35 -62 3 -3 12 -18 20 -35 8 -16 17 -32 20 -35 3 -3 11 -16 18 -29 8
-13 23 -40 34 -60 12 -20 35 -61 51 -91 17 -30 33 -57 37 -60 3 -3 10 -14 13
-24 9 -23 14 -18 49 42 65 114 86 150 113 197 15 28 39 67 52 87 12 21 23 40
23 43 0 2 15 28 33 57 17 30 39 67 49 83 45 83 144 255 166 290 14 22 25 41
24 42 -1 2 13 27 31 55 19 29 47 78 63 108 16 30 31 57 34 60 8 8 39 62 58
100 9 19 20 37 25 38 4 2 7 10 7 18 0 8 5 14 11 14 5 0 8 4 4 9 -3 5 0 13 5
16 6 4 15 17 21 28 5 12 15 31 21 42 44 68 76 124 89 153 7 17 17 32 21 32 5
0 8 4 8 9 0 5 19 42 43 83 24 40 46 80 50 88 4 8 16 29 27 45 11 17 25 42 31
58 6 15 15 27 20 27 5 0 9 9 9 19 0 11 4 21 8 23 5 2 20 23 34 48 14 25 36 63
48 85 13 22 31 55 41 73 10 18 22 38 27 45 5 7 24 39 42 72 50 91 60 107 80
140 11 17 31 52 45 80 15 27 32 53 38 57 6 3 -638 6 -1431 6 -793 1 -1442 -1
-1442 -3z"/>
<path d="M1930 3767 c-73 -128 -140 -240 -148 -249 -8 -10 -12 -18 -8 -18 4 0
-1 -12 -12 -27 -10 -16 -69 -116 -131 -223 -61 -107 -115 -202 -120 -210 -5
-8 -44 -76 -87 -150 -42 -74 -80 -137 -83 -140 -3 -3 -14 -21 -23 -40 -27 -56
-62 -115 -70 -118 -5 -2 -8 -9 -8 -16 0 -8 -9 -25 -21 -40 -11 -14 -17 -26
-14 -26 4 0 -4 -15 -17 -32 -14 -18 -37 -59 -53 -90 -16 -32 -33 -58 -37 -58
-4 0 -8 -4 -8 -9 0 -10 -109 -203 -118 -211 -4 -3 -8 -12 -10 -20 -2 -8 -10
-22 -18 -31 -8 -8 -14 -18 -14 -21 0 -4 -24 -46 -52 -95 -29 -48 -62 -105 -73
-125 -57 -105 -98 -174 -109 -180 -6 -4 -7 -8 -1 -8 7 0 7 -3 0 -8 -5 -4 -22
-30 -36 -58 l-27 -52 2869 0 c2141 0 2869 3 2869 12 0 6 -9 22 -20 36 -11 14
-20 28 -20 31 0 3 -52 95 -115 204 -63 108 -115 199 -115 201 0 3 -11 23 -26
45 -14 22 -33 55 -43 72 -10 18 -51 88 -91 157 -39 69 -86 150 -102 180 -17
30 -34 57 -37 60 -3 3 -18 28 -32 55 -57 108 -64 120 -71 123 -5 2 -8 7 -8 11
0 5 -23 48 -52 97 -156 268 -234 403 -252 439 -12 22 -24 42 -28 43 -5 2 -8
10 -8 18 0 8 -4 14 -10 14 -5 0 -10 4 -10 10 0 5 -59 112 -131 237 -73 125
-143 248 -157 273 -14 25 -36 62 -49 82 -12 21 -23 41 -23 46 0 5 -8 16 -18
25 -16 15 -19 13 -46 -36 -16 -29 -36 -60 -44 -69 -8 -10 -12 -18 -8 -18 4 0
-1 -12 -12 -27 -16 -24 -155 -262 -199 -343 -8 -14 -23 -38 -33 -55 -10 -16
-31 -52 -45 -79 -45 -82 -50 -91 -56 -96 -3 -3 -8 -10 -10 -15 -6 -16 -163
-289 -169 -295 -6 -6 -39 -65 -59 -107 -8 -18 -19 -33 -23 -33 -4 0 -8 -4 -8
-9 0 -8 -103 -193 -140 -251 -5 -8 -19 -34 -31 -57 -13 -24 -26 -43 -31 -43
-4 0 -8 -5 -8 -12 0 -6 -26 -57 -59 -112 -32 -56 -68 -117 -78 -136 -34 -59
-83 -144 -93 -160 -5 -8 -31 -53 -58 -100 -27 -47 -59 -103 -72 -125 -12 -22
-34 -60 -48 -85 -14 -25 -44 -77 -68 -117 -23 -39 -39 -75 -36 -79 4 -4 1 -5
-7 -2 -8 2 -51 69 -97 149 -45 79 -87 149 -93 156 -6 7 -11 19 -11 28 0 8 -3
15 -7 15 -5 0 -13 10 -19 23 -6 12 -61 110 -123 217 -151 261 -150 259 -179
310 -14 25 -45 78 -69 118 -24 41 -43 78 -43 83 0 5 -5 9 -11 9 -5 0 -8 4 -4
9 3 5 1 12 -4 15 -9 6 -158 262 -195 334 -10 20 -21 39 -25 42 -3 3 -11 14
-17 25 -26 47 -63 113 -91 160 -16 28 -32 57 -36 65 -4 8 -16 29 -27 45 -11
17 -24 39 -29 51 -5 12 -26 46 -45 77 -20 31 -36 58 -36 61 0 2 -19 37 -43 78
-24 40 -55 94 -69 119 -46 83 -53 94 -58 99 -6 6 -19 29 -64 110 -16 30 -35
60 -42 67 -9 9 -41 -39 -144 -220z"/>
</g>
</svg>
